<?xml version="1.0" encoding="iso-8859-1"?>
<!-- Generator: Adobe Illustrator 19.0.0, SVG Export Plug-In . SVG Version: 6.00 Build 0)  -->
<svg version="1.1" id="Layer_1" xmlns="http://www.w3.org/2000/svg" xmlns:xlink="http://www.w3.org/1999/xlink" x="0px" y="0px"
	 viewBox="0 0 512 512" style="enable-background:new 0 0 512 512;" xml:space="preserve">
<g>
	<g>
		<path d="M356.287,0H155.723c-16.016,0-29.048,13.031-29.048,29.048v453.904c0,16.017,13.031,29.048,29.048,29.048h200.564
			c16.012,0,29.037-13.031,29.037-29.048V29.048C385.324,13.031,372.298,0,356.287,0z M369.463,482.952
			c0,7.271-5.911,13.186-13.176,13.186H155.723c-7.271,0-13.186-5.915-13.186-13.186V29.048c0-7.271,5.915-13.186,13.186-13.186
			h200.564c7.265,0,13.176,5.915,13.176,13.186V482.952z"/>
	</g>
</g>
<g>
	<g>
		<path d="M300.846,73.894v26.394h-89.692V73.894h-47.531v100.308h47.531v-26.383h89.692v26.383h47.532V73.894H300.846z
			 M195.293,158.341h-15.808V89.755h15.808V158.341z M300.846,131.957h-89.692v-15.809h89.692V131.957z M332.516,158.34h-15.809
			V89.755h15.809V158.34z"/>
	</g>
</g>
<g>
	<g>
		<path d="M300.846,348.351v26.394h-89.692v-26.394h-47.531V448.66h47.531v-26.383h89.692v26.383h47.532V348.351H300.846z
			 M195.293,432.798h-15.808v-68.585h15.808V432.798z M300.846,406.415h-89.692v-15.809h89.692V406.415z M332.516,432.798h-15.809
			v-68.585h15.809V432.798z"/>
	</g>
</g>
<g>
	<g>
		<rect x="171.558" y="248.075" width="168.894" height="15.862"/>
	</g>
</g>
<g>
	<g>
		<rect x="171.558" y="290.298" width="168.894" height="15.862"/>
	</g>
</g>
<g>
	<g>
		<rect x="171.558" y="205.851" width="168.894" height="15.862"/>
	</g>
</g>
<g>
</g>
<g>
</g>
<g>
</g>
<g>
</g>
<g>
</g>
<g>
</g>
<g>
</g>
<g>
</g>
<g>
</g>
<g>
</g>
<g>
</g>
<g>
</g>
<g>
</g>
<g>
</g>
<g>
</g>
</svg>
