<?xml version="1.0" standalone="no"?>
<!DOCTYPE svg PUBLIC "-//W3C//DTD SVG 20010904//EN"
 "http://www.w3.org/TR/2001/REC-SVG-20010904/DTD/svg10.dtd">
<svg version="1.0" xmlns="http://www.w3.org/2000/svg"
 width="200.000000pt" height="200.000000pt" viewBox="0 0 200.000000 200.000000"
 preserveAspectRatio="xMidYMid meet">
<metadata>
Created by potrace 1.10, written by Peter Selinger 2001-2011
</metadata>
<g transform="translate(0.000000,200.000000) scale(0.100000,-0.100000)"
fill="#000000" stroke="none">
<path d="M895 1729 c-275 -42 -502 -230 -590 -489 -131 -386 67 -797 452 -934
376 -133 795 65 933 441 62 171 61 342 -3 513 -87 229 -269 391 -510 454 -76
20 -208 27 -282 15z m274 -75 c179 -45 350 -182 429 -344 56 -113 75 -194 75
-310 0 -186 -65 -343 -198 -475 -132 -133 -289 -198 -475 -198 -186 0 -344 65
-476 197 -132 132 -197 290 -197 476 0 186 65 344 197 475 175 174 409 239
645 179z"/>
<path d="M1015 1630 c11 -5 30 -9 43 -9 46 -2 178 -53 247 -96 84 -52 177
-146 228 -231 36 -59 79 -180 93 -259 4 -23 9 -32 11 -22 8 34 -28 182 -61
252 -69 145 -167 243 -311 311 -66 31 -197 65 -247 63 -22 0 -22 -1 -3 -9z"/>
<path d="M872 1308 c-73 -28 -153 -109 -181 -183 -48 -127 -19 -267 74 -360
67 -67 137 -95 235 -95 132 0 244 69 300 185 36 72 40 189 10 268 -30 78 -108
157 -185 186 -74 28 -180 28 -253 -1z m271 -51 c169 -99 199 -326 63 -463
-137 -136 -364 -106 -463 63 -31 53 -42 162 -24 229 21 78 98 160 178 190 25
9 67 13 119 11 66 -3 89 -8 127 -30z"/>
<path d="M901 1253 c-61 -22 -133 -96 -154 -158 -36 -105 -13 -210 63 -285
106 -107 274 -107 380 0 172 171 48 463 -194 459 -28 0 -71 -8 -95 -16z m199
-24 c197 -89 200 -365 5 -455 -165 -78 -355 43 -355 226 0 62 27 129 68 174
67 72 192 96 282 55z"/>
<path d="M880 1160 c-9 -14 -34 -55 -54 -92 l-38 -68 41 -72 c64 -117 52 -110
171 -110 l105 0 53 88 c28 48 52 91 52 94 0 3 -24 46 -52 94 l-53 88 -104 2
c-100 1 -104 0 -121 -24z m253 -82 l46 -78 -46 -77 -45 -78 -88 0 -88 0 -45
78 -46 77 46 78 45 77 88 0 88 0 45 -77z"/>
<path d="M950 1092 c-50 -25 -70 -83 -46 -134 33 -70 116 -85 170 -32 52 52
37 137 -29 168 -42 20 -52 20 -95 -2z m101 -41 c16 -16 29 -39 29 -51 0 -28
-52 -80 -80 -80 -28 0 -80 52 -80 80 0 12 13 35 29 51 37 37 65 37 102 0z"/>
<path d="M361 982 c-2 -54 33 -183 69 -257 67 -138 157 -227 295 -295 78 -39
225 -76 262 -67 10 2 1 7 -22 11 -79 14 -200 57 -259 93 -85 51 -179 144 -231
228 -43 69 -94 201 -96 247 0 13 -4 32 -9 43 -8 19 -9 19 -9 -3z"/>
</g>
</svg>
